<?xml version="1.0" encoding="UTF-8"?>
<!-- Source: Material Symbols: grading-rounded (modified) -->
<svg width="24" height="24" version="1.1" viewBox="0 0 24 24" xmlns="http://www.w3.org/2000/svg">
 <path d="m17.5 21-0.5075-0.45648c-1.8025-1.615-2.9925-2.6801-2.9925-3.9873 0-0.71931 0.847-1.5562 1.925-1.5562 0.609 0 1.1935 0.28012 1.575 0.72277 0.3815-0.44265 0.966-0.72277 1.575-0.72277 1.078 0 1.925 0.83689 1.925 1.5562 0 1.3072-1.19 2.3723-2.9925 3.9908z" fill="#7957d5" stroke-width=".3479"/>
 <path d="M4 21q-.425 0-.712-.288T3 20t.288-.712T4 19h7q.425 0 .713.288T12 20t-.288.713T11 21zm0-4q-.425 0-.712-.288T3 16t.288-.712T4 15h7q.425 0 .713.288T12 16t-.288.713T11 17zm0-4q-.425 0-.712-.288T3 12t.288-.712T4 11h16q.425 0 .713.288T21 12t-.288.713T20 13zm0-4q-.425 0-.712-.288T3 8t.288-.712T4 7h16q.425 0 .713.288T21 8t-.288.713T20 9zm0-4q-.425 0-.712-.288T3 4t.288-.712T4 3h16q.425 0 .713.288T21 4t-.288.713T20 5z" fill="#7957d5"/>
</svg>